HIERARCHY
ROOT pelvis
{
  OFFSET 0 100 0
  CHANNELS 6 Xposition Yposition Zposition Zrotation Xrotation Yrotation
  JOINT pelvis_right_femur
  {
    OFFSET -10.78128 -3.44521 -0.5502486
    CHANNELS 3 Zrotation Xrotation Yrotation
    JOINT right_femur_tibia
    {
      OFFSET -0.8047443 -44.0398 -0.1307829
      CHANNELS 3 Zrotation Xrotation Yrotation
      JOINT right_tibia_foot
      {
        OFFSET 3.006224 -47.83518 -5
        CHANNELS 3 Zrotation Xrotation Yrotation
        End Site
        {
          OFFSET 0 -5 15
        }
      }
    }
  }
  JOINT pelvis_left_femur
  {
    OFFSET 10.78128 -3.44521 -0.5502486
    CHANNELS 3 Zrotation Xrotation Yrotation
    JOINT left_femur_tibia
    {
      OFFSET 0.8047443 -44.0398 -0.1307829
      CHANNELS 3 Zrotation Xrotation Yrotation
      JOINT left_tibia_foot
      {
        OFFSET -4.370144 -48.10324 -4.275266
        CHANNELS 3 Zrotation Xrotation Yrotation
        End Site
        {
          OFFSET 0 -5 15
        }
      }
    }
  }
  JOINT pelvis_spine1
  {
    OFFSET 0 6.468898 -3.129235
    CHANNELS 3 Zrotation Xrotation Yrotation
    JOINT spine1
    {
      OFFSET 0 23.15396 4.99043
      CHANNELS 3 Zrotation Xrotation Yrotation
      JOINT spine2
      {
        OFFSET 0 20.79997 -5.064912
        CHANNELS 3 Zrotation Xrotation Yrotation
        JOINT neck
        {
          OFFSET 0 14.38658 9.616178
          CHANNELS 3 Zrotation Xrotation Yrotation
          End Site
          {
            OFFSET 0 20 0
          }
        }
      }
      JOINT right_manubrium
      {
        OFFSET -5.722621 16.35077 3.967754
        CHANNELS 3 Zrotation Xrotation Yrotation
        JOINT right_clavicle
        {
          OFFSET -13.16364 1.694482 -4.693211
          CHANNELS 3 Zrotation Xrotation Yrotation
          JOINT right_humerus
          {
            OFFSET -28.5034 -0.3100689 -2.792744
            CHANNELS 3 Zrotation Xrotation Yrotation
            JOINT right_radius
            {
              OFFSET -25.15693 0.02248979 -1.271978
              CHANNELS 3 Zrotation Xrotation Yrotation
              End Site
              {
                OFFSET -15 0 0
              }
            }
          }
        }
      }
      JOINT left_manubrium
      {
        OFFSET 5.722621 16.35077 3.967754
        CHANNELS 3 Zrotation Xrotation Yrotation
        JOINT left_clavicle
        {
          OFFSET 13.16364 1.694482 -4.693211
          CHANNELS 3 Zrotation Xrotation Yrotation
          JOINT left_humerus
          {
            OFFSET 29.39168 -1.063119 -2.237045
            CHANNELS 3 Zrotation Xrotation Yrotation
            JOINT left_radius
            {
              OFFSET 24.59957 -0.9528479 0.9047498
              CHANNELS 3 Zrotation Xrotation Yrotation
              End Site
              {
                OFFSET 15 -0 -0
              }
            }
          }
        }
      }
    }
  }
}
MOTION
Frames: 13
Frame Time: 0.0416666666667
38.88312 101.2366 254.3041 2.329346 -8.365862 0.1194579 0.7917396 11.96404 5.578138 -0 19.43099 -0 5.102179 -11.23772 -1.989318 -2.637821 -13.85186 -5.496131 -0 26.50589 -0 -6.731065 -8.465854 17.84121 -1.541554 -0.3751118 8.199276 -1.232608 10.15893 -2.921662 2.305418 22.16064 5.284281 1.413962 -14.64148 7.691257 2.042076 -19.26076 11.27828 83.18986 23.15415 -9.597024 -0 0 21.3986 -24.63772 14.34622 12.21466 4.704058 -16.02693 -3.773688 -90.46693 23.00568 20.0533 0 0 -13.63869 -1.91918 6.843798 15.50036
39.70339 101.0251 260.4104 2.491128 -8.529506 0.4574052 0.4782637 10.99656 5.294903 -0 21.90954 -0 5.107244 -11.05922 -2.38738 -3.092005 -12.74816 -5.864629 -0 25.16221 -0 -6.586078 -9.218941 17.63544 -1.770435 -0.2825125 7.959847 -1.289304 9.930607 -2.918256 2.392747 22.36657 5.238432 1.289099 -14.45254 7.858164 1.953313 -18.97096 11.06708 83.46081 23.04387 -9.657556 -0 0 21.09758 -24.45274 14.2064 12.04573 4.685622 -15.90468 -3.785711 -90.12366 23.28611 19.47929 0 0 -13.59353 -1.873476 6.993117 15.42936
40.54799 100.8936 266.4482 2.664699 -8.675496 0.9386671 0.1824893 9.566452 4.952884 -0 24.32751 -0 5.023386 -10.74361 -2.879501 -3.615145 -11.08206 -6.270839 -0 24.12154 -0 -6.440751 -9.995457 17.3624 -2.008359 -0.2111054 7.635563 -1.299216 9.711686 -2.993401 2.476436 22.58756 5.196129 1.166361 -14.26782 8.0272 1.898946 -18.54974 10.84644 83.88076 23.01354 -9.978256 -0 0 20.49014 -24.17105 14.08634 11.79701 4.676253 -15.8889 -3.822149 -89.6071 23.57409 18.59465 0 0 -13.74788 -1.748047 7.189993 15.26197
41.40766 100.8574 272.4202 2.844355 -8.794692 1.549544 -0.08576293 7.776969 4.571358 -0 26.50438 -0 4.846143 -10.34295 -3.437218 -4.160509 -8.980232 -6.682912 -0 23.39659 -0 -6.306077 -10.77176 17.04085 -2.244788 -0.1574346 7.245854 -1.266346 9.50001 -3.133899 2.559655 22.81706 5.151281 1.050249 -14.09236 8.190394 1.865896 -18.02151 10.6212 84.4171 23.04767 -10.51336 -0 0 19.6303 -23.80038 13.97827 11.47647 4.680782 -15.96887 -3.874689 -88.95366 23.85779 17.44866 0 0 -14.07948 -1.548242 7.433449 14.99995
42.27319 100.9172 278.3361 3.022195 -8.87774 2.266358 -0.3151684 5.74418 4.173136 -0 28.24322 -0 4.569556 -9.916174 -4.028501 -4.682109 -6.587901 -7.072647 -0 22.9889 -0 -6.191901 -11.52461 16.69182 -2.468937 -0.1176032 6.812586 -1.195479 9.292215 -3.324627 2.646022 23.04805 5.097142 0.9456604 -13.93147 8.339132 1.838467 -17.41423 10.39625 85.03314 23.12918 -11.20945 -0 0 18.58088 -23.35025 13.87283 11.09402 4.704819 -16.1315 -3.933788 -88.20568 24.12596 16.09887 0 0 -14.56166 -1.280439 7.722241 14.64565
43.13543 101.0592 284.2127 3.189068 -8.917669 3.057152 -0.4947576 3.58025 3.780755 -0 29.37424 -0 4.18881 -9.517729 -4.623229 -5.142663 -4.046565 -7.420435 -0 22.8891 -0 -6.105381 -12.23373 16.33533 -2.671437 -0.08797938 6.356871 -1.091845 9.085027 -3.5506 2.738712 23.27406 5.02779 0.8569031 -13.78978 8.465779 1.801884 -16.75569 10.17621 85.69327 23.24222 -12.01329 -0 0 17.40443 -22.83165 13.76101 10.66072 4.753158 -16.36273 -3.990453 -87.40536 24.36967 14.60442 0 0 -15.16579 -0.9517511 8.054025 14.20316
43.98547 101.2595 290.0718 3.335941 -8.91187 3.884944 -0.6161072 1.382206 3.413206 -0 29.78968 -0 3.703014 -9.188753 -5.197137 -5.517886 -1.478042 -7.716712 -0 23.07752 -0 -6.049914 -12.88341 15.98834 -2.845586 -0.06558397 5.896799 -0.9609515 8.876384 -3.798357 2.83969 23.49002 4.939332 0.786935 -13.67054 8.564915 1.745166 -16.07106 9.965189 86.36675 23.37384 -12.87721 -0 0 16.15672 -22.25698 13.63572 10.18857 4.828363 -16.64841 -4.037639 -86.59049 24.58302 13.02165 0 0 -15.86208 -0.5700837 8.424683 13.67947
44.81501 101.4879 295.9373 3.455145 -8.862844 4.711306 -0.6745149 -0.7679417 3.084492 -0 29.45659 -0 3.116672 -8.954343 -5.732501 -5.796127 1.017482 -7.960231 -0 23.52643 -0 -6.024876 -13.46183 15.66528 -2.987589 -0.04797919 5.447109 -0.8087003 8.666083 -4.055982 2.949321 23.69267 4.830379 0.7372 -13.57555 8.633619 1.662287 -15.3829 9.766805 87.02834 23.51444 -13.75957 -0 0 14.8854 -21.6405 13.49202 9.690841 4.929999 -16.97391 -4.07073 -85.79418 24.7631 11.40463 0 0 -16.61757 -0.1447173 8.828143 13.08552
45.61689 101.7133 301.8319 3.541386 -8.778236 5.499436 -0.6691536 -2.792901 2.80373 -0 28.41478 -0 2.440105 -8.825291 -6.216078 -5.975527 3.350849 -8.155168 -0 24.20295 -0 -6.025647 -13.9584 15.38069 -3.09603 -0.03275712 5.020579 -0.6418308 8.456155 -4.311872 3.066227 23.88065 4.702041 0.7079293 -13.50552 8.671026 1.5521 -14.71337 9.584549 87.65577 23.65715 -14.62045 -0 0 13.63352 -20.99951 13.32666 9.1835 5.054201 -17.32256 -4.087324 -85.04847 24.90953 9.81085 0 0 -17.39077 0.3124085 9.25646 12.43764
46.38597 101.9072 307.7741 3.592565 -8.670713 6.216554 -0.6028003 -4.605624 2.575805 -0 26.77102 -0 1.689523 -8.801307 -6.63589 -6.061022 5.428087 -8.308527 -0 25.07151 -0 -6.043534 -14.36035 15.15286 -3.171106 -0.01688989 4.630103 -0.4685584 8.2512 -4.552951 3.187196 24.05456 4.557775 0.698594 -13.46056 8.677646 1.417832 -14.08754 9.422249 88.22602 23.79719 -15.41525 -0 0 12.44506 -20.35603 13.13716 8.687067 5.193273 -17.67344 -4.086808 -84.3894 25.02428 8.309351 0 0 -18.12473 0.7849578 9.699978 11.75917
47.1201 102.0477 313.774 3.610194 -8.557386 6.835594 -0.4814408 -6.100249 2.401877 -0 24.69 -0 0.8866051 -8.874134 -6.97879 -6.062103 7.139945 -8.42818 -0 26.09557 -0 -6.065974 -14.65065 15.00595 -3.213991 0.003663846 4.290095 -0.2988667 8.058423 -4.763592 3.307271 24.21681 4.403103 0.7082736 -13.44057 8.654799 1.266366 -13.53537 9.284282 88.7126 23.93141 -16.09068 -0 0 11.36863 -19.73761 12.92135 8.227533 5.33567 -18.0002 -4.069995 -83.85999 25.11168 6.985435 0 0 -18.7434 1.251198 10.14775 11.08133
47.82064 102.1217 319.8313 3.598933 -8.457781 7.336014 -0.3136229 -7.158841 2.279589 -0 22.37362 -0 0.05666603 -9.030474 -7.230545 -5.991112 8.367678 -8.521278 -0 27.23899 -0 -6.078049 -14.80933 14.96805 -3.226468 0.03366235 4.015846 -0.1437542 7.886799 -4.926632 3.420352 24.37112 4.2449 0.7358257 -13.44534 8.604314 1.106927 -13.08988 9.175151 89.08673 24.05808 -16.58794 -0 0 10.45533 -19.17501 12.67757 7.834197 5.467255 -18.27303 -4.038814 -83.50702 25.17808 5.934425 0 0 -19.15834 1.68554 10.58866 10.44058
48.49221 102.1266 325.935 3.56504 -8.390253 7.703609 -0.1094587 -7.674738 2.203321 -0 20.02611 -0 -0.7748813 -9.254749 -7.378617 -5.86166 9.005873 -8.593089 -0 28.46727 -0 -6.065595 -14.81856 15.0648 -3.210807 0.07754559 3.820755 -0.01340003 7.745239 -5.026547 3.520382 24.52147 4.090172 0.7798921 -13.47445 8.528445 0.9491035 -12.78118 9.098466 89.3227 24.17643 -16.85363 -0 0 9.750585 -18.6969 12.40549 7.534239 5.574029 -18.46422 -3.995926 -83.37187 25.23017 5.243859 0 0 -19.28645 2.063035 11.013 9.872243
